<svg xmlns="http://www.w3.org/2000/svg" viewBox="0 0 547.56 547.56" width="548" height="548" preserveAspectRatio="none">
<rect x="5.00" y="5.00" width="537.56" height="537.56" fill="none" stroke="#A5F0B1" stroke-width="10.0"/>
<g transform="translate(60.00,366.08) scale(0.260000,-0.260000)"><path d="M380 715Q472 715 544.5 680.5Q617 646 662.5 583.0Q708 520 723 436H489Q473 471 443.5 490.5Q414 510 376 510Q320 510 287.5 468.0Q255 426 255 355Q255 284 287.5 242.0Q320 200 376 200Q414 200 443.5 219.5Q473 239 489 274H723Q708 190 662.5 127.0Q617 64 544.5 29.5Q472 -5 380 -5Q273 -5 194.0 40.5Q115 86 72.5 168.0Q30 250 30 355Q30 460 72.5 542.0Q115 624 194.0 669.5Q273 715 380 715Z" fill="#FFFFFF"/></g>
<g transform="translate(273.78,366.08) scale(0.260000,-0.260000)"><path d="M380 715Q472 715 544.5 680.5Q617 646 662.5 583.0Q708 520 723 436H489Q473 471 443.5 490.5Q414 510 376 510Q320 510 287.5 468.0Q255 426 255 355Q255 284 287.5 242.0Q320 200 376 200Q414 200 443.5 219.5Q473 239 489 274H723Q708 190 662.5 127.0Q617 64 544.5 29.5Q472 -5 380 -5Q273 -5 194.0 40.5Q115 86 72.5 168.0Q30 250 30 355Q30 460 72.5 542.0Q115 624 194.0 669.5Q273 715 380 715Z" fill="#A5F0B1"/></g>
</svg>