<svg xmlns="http://www.w3.org/2000/svg" viewBox="0 0 967.10 170.20" width="967" height="170" preserveAspectRatio="none">
<rect x="4.00" y="4.00" width="959.10" height="162.20" fill="#0E1116" stroke="#A5F0B1" stroke-width="8.0"/>
<g transform="translate(74.00,120.50) scale(0.100000,-0.100000)"><path d="M380 715Q472 715 544.5 680.5Q617 646 662.5 583.0Q708 520 723 436H489Q473 471 443.5 490.5Q414 510 376 510Q320 510 287.5 468.0Q255 426 255 355Q255 284 287.5 242.0Q320 200 376 200Q414 200 443.5 219.5Q473 239 489 274H723Q708 190 662.5 127.0Q617 64 544.5 29.5Q472 -5 380 -5Q273 -5 194.0 40.5Q115 86 72.5 168.0Q30 250 30 355Q30 460 72.5 542.0Q115 624 194.0 669.5Q273 715 380 715Z" fill="#FFFFFF"/></g>
<g transform="translate(151.30,120.50) scale(0.100000,-0.100000)"><path d="M406 0 273 254H272V0H50V708H380Q466 708 527.0 677.5Q588 647 618.5 594.5Q649 542 649 476Q649 405 609.5 350.0Q570 295 496 271L650 0ZM272 402H360Q392 402 408.0 416.5Q424 431 424 462Q424 490 407.5 506.0Q391 522 360 522H272Z" fill="#FFFFFF"/></g>
<g transform="translate(220.30,120.50) scale(0.100000,-0.100000)"><path d="M267 708V309Q267 260 288.5 231.5Q310 203 358 203Q406 203 429.0 231.5Q452 260 452 309V708H673V309Q673 208 631.0 136.5Q589 65 516.0 29.0Q443 -7 353 -7Q263 -7 193.5 29.0Q124 65 85.0 136.0Q46 207 46 309V708Z" fill="#FFFFFF"/></g>
<g transform="translate(294.20,120.50) scale(0.100000,-0.100000)"><path d="M296 177H580V0H50V167L330 532H50V708H580V541Z" fill="#FFFFFF"/></g>
<g transform="translate(378.20,120.50) scale(0.100000,-0.100000)"><path d="M380 715Q472 715 544.5 680.5Q617 646 662.5 583.0Q708 520 723 436H489Q473 471 443.5 490.5Q414 510 376 510Q320 510 287.5 468.0Q255 426 255 355Q255 284 287.5 242.0Q320 200 376 200Q414 200 443.5 219.5Q473 239 489 274H723Q708 190 662.5 127.0Q617 64 544.5 29.5Q472 -5 380 -5Q273 -5 194.0 40.5Q115 86 72.5 168.0Q30 250 30 355Q30 460 72.5 542.0Q115 624 194.0 669.5Q273 715 380 715Z" fill="#A5F0B1"/></g>
<g transform="translate(455.50,120.50) scale(0.100000,-0.100000)"><path d="M406 0 273 254H272V0H50V708H380Q466 708 527.0 677.5Q588 647 618.5 594.5Q649 542 649 476Q649 405 609.5 350.0Q570 295 496 271L650 0ZM272 402H360Q392 402 408.0 416.5Q424 431 424 462Q424 490 407.5 506.0Q391 522 360 522H272Z" fill="#A5F0B1"/></g>
<g transform="translate(524.50,120.50) scale(0.100000,-0.100000)"><path d="M272 531V444H492V277H272V177H522V0H50V708H522V531Z" fill="#A5F0B1"/></g>
<g transform="translate(582.10,120.50) scale(0.100000,-0.100000)"><path d="M504 107H268L233 0H0L259 708H515L773 0H539ZM450 274 386 471 322 274Z" fill="#A5F0B1"/></g>
<g transform="translate(661.40,120.50) scale(0.100000,-0.100000)"><path d="M606 708V532H418V0H196V532H10V708Z" fill="#A5F0B1"/></g>
<g transform="translate(725.00,120.50) scale(0.100000,-0.100000)"><path d="M272 708V0H50V708Z" fill="#A5F0B1"/></g>
<g transform="translate(759.20,120.50) scale(0.100000,-0.100000)"><path d="M763 708 525 0H238L0 708H236L382 221L527 708Z" fill="#A5F0B1"/></g>
<g transform="translate(837.50,120.50) scale(0.100000,-0.100000)"><path d="M272 531V444H492V277H272V177H522V0H50V708H522V531Z" fill="#A5F0B1"/></g>
</svg>